<?xml version="1.0" standalone="no"?>
<!DOCTYPE svg PUBLIC "-//W3C//DTD SVG 20010904//EN"
 "http://www.w3.org/TR/2001/REC-SVG-20010904/DTD/svg10.dtd">
<svg version="1.0" xmlns="http://www.w3.org/2000/svg"
 width="618.000000pt" height="618.000000pt" viewBox="0 0 618.000000 618.000000"
 preserveAspectRatio="xMidYMid meet">
<metadata>
Created by potrace 1.14, written by Peter Selinger 2001-2017
</metadata>
<g transform="translate(0.000000,618.000000) scale(0.100000,-0.100000)"
fill="#000000" stroke="none">
<path d="M969 5191 l-29 -29 0 -2086 0 -2085 24 -28 24 -28 1387 -3 c1039 -2
1391 1 1408 9 46 25 1394 1023 1425 1055 l32 34 0 1566 0 1566 -29 29 -29 29
-2092 0 -2092 0 -29 -29z m1005 -579 c114 -66 103 -238 -18 -296 -132 -63
-280 81 -222 217 39 91 153 129 240 79z m2397 3 c100 -52 118 -179 35 -261
-69 -70 -156 -72 -225 -6 -143 136 15 357 190 267z m689 -1705 l0 -760 -680 0
c-562 0 -687 -2 -714 -14 -59 -24 -59 -34 -51 -557 l7 -469 -1251 0 -1251 0 0
1280 0 1280 1970 0 1970 0 0 -760z"/>
<path d="M1529 3460 c-144 -25 -187 -224 -68 -312 57 -43 148 -41 211 3 33 24
68 95 68 139 0 45 -35 115 -69 140 -36 25 -96 38 -142 30z"/>
<path d="M2045 3460 c-67 -15 -117 -64 -135 -130 -32 -119 91 -242 210 -210
46 12 95 51 115 91 18 33 20 121 4 152 -38 74 -119 114 -194 97z"/>
<path d="M2554 3460 c-46 -10 -92 -46 -114 -90 -68 -133 53 -286 195 -249 57
16 90 43 115 95 63 130 -55 276 -196 244z"/>
<path d="M3075 3460 c-67 -15 -117 -64 -135 -130 -32 -119 91 -242 210 -210
46 12 95 51 115 91 18 33 20 121 4 152 -38 74 -119 114 -194 97z"/>
<path d="M1495 2936 c-115 -53 -140 -202 -49 -288 90 -84 223 -57 275 57 24
51 23 89 0 141 -38 84 -147 127 -226 90z"/>
<path d="M2004 2931 c-130 -59 -135 -236 -9 -309 53 -30 127 -26 183 10 104
70 95 236 -17 295 -53 28 -102 29 -157 4z"/>
<path d="M2525 2936 c-115 -53 -140 -202 -49 -288 90 -84 223 -57 275 57 24
51 23 89 0 141 -38 84 -147 127 -226 90z"/>
<path d="M3034 2931 c-130 -59 -135 -236 -9 -309 53 -30 127 -26 183 10 104
70 95 236 -17 295 -53 28 -102 29 -157 4z"/>
<path d="M1529 2430 c-144 -25 -187 -224 -68 -312 57 -43 148 -41 211 3 33 24
68 95 68 139 0 45 -35 115 -69 140 -36 25 -96 38 -142 30z"/>
</g>
</svg>
